<svg xmlns="http://www.w3.org/2000/svg" width="506" height="338" viewBox="0 0 506 338">
<rect width="100%" height="100%" fill="white"/>
<text x="253" y="22" text-anchor="middle" font-family="Helvetica, Arial, sans-serif" font-size="16" font-weight="bold" fill="#111">CF_DPRAM</text>
<rect x="148" y="48" width="210" height="218" fill="#f7f7f7" stroke="#222" stroke-width="1.5"/>
<text x="253" y="162" text-anchor="middle" font-family="Helvetica, Arial, sans-serif" font-size="13" fill="#333">CF_DPRAM</text>
<line x1="148" y1="69" x2="130" y2="69" stroke="#222" stroke-width="1.25"/>
<text x="124" y="73" text-anchor="end" font-family="Menlo, Consolas, monospace" font-size="11" fill="#111">ARO[2:0]</text>
<line x1="148" y1="91" x2="130" y2="91" stroke="#222" stroke-width="1.25"/>
<text x="124" y="95" text-anchor="end" font-family="Menlo, Consolas, monospace" font-size="11" fill="#111">ARW[2:0]</text>
<line x1="148" y1="113" x2="130" y2="113" stroke="#222" stroke-width="1.25"/>
<text x="124" y="117" text-anchor="end" font-family="Menlo, Consolas, monospace" font-size="11" fill="#111">WL</text>
<line x1="148" y1="135" x2="130" y2="135" stroke="#222" stroke-width="1.25"/>
<text x="124" y="139" text-anchor="end" font-family="Menlo, Consolas, monospace" font-size="11" fill="#111">WH</text>
<line x1="148" y1="157" x2="130" y2="157" stroke="#222" stroke-width="1.25"/>
<text x="124" y="161" text-anchor="end" font-family="Menlo, Consolas, monospace" font-size="11" fill="#111">ENR</text>
<line x1="148" y1="179" x2="130" y2="179" stroke="#222" stroke-width="1.25"/>
<text x="124" y="183" text-anchor="end" font-family="Menlo, Consolas, monospace" font-size="11" fill="#111">DI[15:0]</text>
<line x1="148" y1="201" x2="130" y2="201" stroke="#222" stroke-width="1.25"/>
<text x="124" y="205" text-anchor="end" font-family="Menlo, Consolas, monospace" font-size="11" fill="#111">SLP</text>
<line x1="148" y1="223" x2="130" y2="223" stroke="#222" stroke-width="1.25"/>
<text x="124" y="227" text-anchor="end" font-family="Menlo, Consolas, monospace" font-size="11" fill="#111">TME</text>
<line x1="148" y1="245" x2="130" y2="245" stroke="#222" stroke-width="1.25"/>
<text x="124" y="249" text-anchor="end" font-family="Menlo, Consolas, monospace" font-size="11" fill="#111">vpwrka</text>
<line x1="358" y1="146" x2="376" y2="146" stroke="#222" stroke-width="1.25"/>
<text x="382" y="150" text-anchor="start" font-family="Menlo, Consolas, monospace" font-size="11" fill="#111">DORO[15:0]</text>
<line x1="358" y1="168" x2="376" y2="168" stroke="#222" stroke-width="1.25"/>
<text x="382" y="172" text-anchor="start" font-family="Menlo, Consolas, monospace" font-size="11" fill="#111">DORW[15:0]</text>
<line x1="160" y1="266" x2="160" y2="280" stroke="#222" stroke-width="1.25"/>
<text x="160" y="294" text-anchor="middle" font-family="Menlo, Consolas, monospace" font-size="10" fill="#111">vpwr</text>
<line x1="346" y1="266" x2="346" y2="280" stroke="#222" stroke-width="1.25"/>
<text x="346" y="294" text-anchor="middle" font-family="Menlo, Consolas, monospace" font-size="10" fill="#111">vgnd</text>
</svg>
